<svg id="Layer_1" data-name="Layer 1" xmlns="http://www.w3.org/2000/svg" viewBox="0 0 712 430"><title>Black</title><path d="M201,185.09l26.62,69.69,26.61-69.69h8.62l-31.12,79.59h-8.23l-31.12-79.59Z"/><path d="M258.25,235.75c0-16.07,12.47-29.32,28-29.32s28,13.25,28,29.32-12.6,29.32-28,29.32S258.25,251.82,258.25,235.75Zm7.58,0c0,12.6,9.13,22.76,20.45,22.76s20.57-10.16,20.57-22.76S297.46,213,286.28,213,265.83,223.15,265.83,235.75Z"/><path d="M321.51,206.82h7.71V192.93h7.59v13.89h16.33v6H336.81v32.4a12.14,12.14,0,0,0,12.47,12.35,11.07,11.07,0,0,0,2.57-.26l1.68,6.69a21.81,21.81,0,0,1-4.76.64c-11.32,0-19.55-7.84-19.55-19.29V212.86h-7.71Z"/><path d="M389.66,206.43c16.46,0,28.67,13.89,27.77,31.5h-48c.77,11.32,9.13,20.58,20.19,20.58a19.49,19.49,0,0,0,17.87-11.83l7.59.9c-4.37,10.29-13.89,17.49-25.46,17.49-15.69,0-27.91-13.12-27.91-29.32S374.36,206.43,389.66,206.43Zm-19.93,26.49h40c-1.29-12.09-9.65-20.32-20.06-20.45C379,212.47,370.5,221.6,369.73,232.92Z"/><path d="M429,264.68V185.09h39.48c17,0,28.29,9.38,28.29,24a17.12,17.12,0,0,1-7.2,14,20,20,0,0,1,9.77,17.36c0,11.18-8,23.91-27.78,24.17Zm19-47.45h20.19a8.1,8.1,0,0,0,.26-16.2H448Zm22.76,31.38a8.1,8.1,0,0,0,0-16.2H448v16.2Z"/><path d="M538.17,205.79c20.83,0,34.46,15.69,31.63,34h-46c.91,6,5.66,11.7,14.41,11.7,5.53,0,10-2.32,12-5.53l18,.25c-4.38,10.81-14.79,19.55-30,19.55-18.91,0-32.54-13.25-32.54-30C505.63,219.29,520.42,205.79,538.17,205.79Zm13.88,23.92c-1.67-7.08-6.68-10.93-13.88-10.93a13.71,13.71,0,0,0-13.76,10.93Z"/><path d="M606.06,205.79c17.61,0,27.9,8.23,27.9,18.13H614.67c0-3-3.86-5.4-8.61-5.4-6,0-9.52,2.18-9.52,5.4s3.21,5.4,9.52,5.4c18.9,0,27.9,7.84,27.9,17.23,0,10-10.55,19.16-27.9,19.16-15.43,0-27.91-8.23-27.91-18.26h19.29c0,3.09,3.86,5.4,8.62,5.4,5.91,0,9.51-2.31,9.51-5.4,0-3.34-2.7-5.4-9.51-5.4-20.84,0-27.91-8.87-27.91-17.1C578.15,214.15,590.5,205.79,606.06,205.79Z"/><path d="M640,219.8v-13h7.46v-17.1h17.61v17.1h15.69v13H665.07v19.94c0,6,3.86,9,8.87,9a12.2,12.2,0,0,0,3.86-.52l4.12,15.17a45.58,45.58,0,0,1-9,1.29c-15.95,0-25.34-8.49-25.46-24.56V219.8Z"/><path d="M98.14,145.69,84.91,186.23l-42.65,0a6.92,6.92,0,0,0-4.08,12.52l25,18.17,9.55,6.88-1.31,4L59.45,264.36A7,7,0,0,0,65,273.43a7.2,7.2,0,0,0,5.08-1.25l7.31-5.35,27.18-19.73,16.11,11.7,18.36,13.42a7,7,0,0,0,10.68-3.5,6.51,6.51,0,0,0,0-4.27L144.11,247l-7.5-23,34.52-25.07a6.92,6.92,0,0,0,2.54-3.41,7.07,7.07,0,0,0-.43-5.25,6.66,6.66,0,0,0-4.06-3.52,7,7,0,0,0-2.09-.32l-8-.06h-34.7l-1.48-4.62L114.28,155l-3-9.29a6.9,6.9,0,0,0-13.15-.05Zm57,51.16-81.36,59L84.26,223Z"/></svg>