<svg id="Layer_1" data-name="Layer 1" xmlns="http://www.w3.org/2000/svg" viewBox="0 0 712 430"><title>Black Mark</title><path d="M347.81,18.81,309.05,137.49l-124.88.06a20.26,20.26,0,0,0-11.92,36.66l73.05,53.2,28,20.15-3.82,11.6L234.51,366.24c-4.2,13.16,4.93,24.73,16.36,26.58a21.3,21.3,0,0,0,14.89-3.68l21.4-15.66,79.57-57.78L413.9,350l53.78,39.29c12,8.78,27.41,1.78,31.25-10.26a19.15,19.15,0,0,0-.06-12.49L482.4,315.28l-22-67.47,101.08-73.4a20.37,20.37,0,0,0,7.45-10,20.61,20.61,0,0,0-1.28-15.35,19.39,19.39,0,0,0-11.88-10.31,20.74,20.74,0,0,0-6.11-.94l-23.44-.17H443.42l-18.76,0-4.34-13.52-25.26-78L386.31,19a20.48,20.48,0,0,0-4.5-7.73C372,.78,352.89,3.23,347.81,18.81ZM514.69,168.58,276.48,341.42l30.69-96.19Z"/></svg>