<?xml version="1.0" standalone="no"?>
<!DOCTYPE svg PUBLIC "-//W3C//DTD SVG 20010904//EN"
 "http://www.w3.org/TR/2001/REC-SVG-20010904/DTD/svg10.dtd">
<svg version="1.0" xmlns="http://www.w3.org/2000/svg"
 width="1424.000000pt" height="1424.000000pt" viewBox="0 0 1424.000000 1424.000000"
 preserveAspectRatio="xMidYMid meet">
<metadata>
Created by potrace 1.14, written by Peter Selinger 2001-2017
</metadata>
<g transform="translate(0.000000,1424.000000) scale(0.100000,-0.100000)"
fill="#000000" stroke="none">
<path d="M7339 11326 c-2 -2 -24 -6 -49 -9 -89 -11 -151 -37 -223 -97 -20 -16
-87 -106 -87 -116 0 -3 -6 -20 -14 -37 -8 -18 -26 -70 -41 -117 -15 -47 -29
-92 -32 -100 -3 -8 -7 -19 -8 -25 -1 -5 -10 -32 -20 -60 -9 -27 -18 -54 -19
-60 -3 -10 -11 -32 -23 -62 -4 -10 -7 -22 -8 -28 -1 -5 -12 -41 -25 -80 -13
-38 -25 -74 -26 -80 -1 -5 -19 -59 -39 -120 -21 -60 -38 -114 -39 -120 -1 -5
-5 -15 -8 -21 -4 -6 -9 -21 -12 -35 -2 -13 -9 -37 -16 -54 -11 -28 -99 -298
-104 -320 -3 -12 -14 -40 -27 -73 -5 -13 -9 -32 -9 -42 0 -11 -5 -20 -10 -20
-6 0 -9 -3 -8 -7 3 -7 -15 -71 -30 -113 -3 -8 -6 -17 -7 -20 -1 -3 -4 -12 -7
-20 -12 -34 -70 -213 -73 -223 -1 -7 -5 -19 -8 -27 -9 -24 -40 -119 -113 -345
-37 -115 -72 -213 -78 -217 -6 -4 -361 -8 -790 -8 -428 0 -782 -2 -786 -5 -5
-3 -11 -1 -15 5 -4 6 -11 8 -16 5 -8 -5 -595 -9 -624 -4 -5 1 -14 0 -20 -1 -5
-1 -77 -2 -160 -2 -151 -1 -236 -15 -267 -46 -6 -6 -17 -12 -24 -12 -26 0
-122 -107 -152 -170 -41 -85 -57 -162 -38 -187 5 -8 4 -13 -3 -13 -7 0 -9 -5
-5 -11 3 -6 9 -28 11 -48 3 -20 10 -42 15 -48 6 -7 7 -13 3 -13 -4 0 -2 -6 4
-13 6 -8 8 -17 4 -20 -3 -4 -2 -7 4 -7 5 0 15 -11 21 -25 20 -45 66 -87 187
-176 66 -49 125 -92 130 -96 6 -4 51 -37 100 -72 50 -36 92 -67 95 -70 3 -4
28 -22 55 -41 28 -19 56 -40 63 -47 7 -7 16 -13 20 -13 4 0 21 -11 37 -25 38
-31 40 -33 100 -75 28 -19 55 -38 60 -43 6 -4 73 -54 150 -109 77 -56 165
-120 196 -142 30 -23 66 -49 80 -58 13 -10 73 -54 132 -98 59 -44 110 -80 112
-80 5 0 38 -26 60 -47 8 -7 16 -13 20 -13 3 0 11 -5 18 -10 7 -6 93 -69 192
-140 99 -71 188 -135 197 -142 10 -7 40 -29 67 -48 51 -36 58 -51 42 -92 -11
-27 -23 -62 -22 -65 1 -2 -8 -27 -18 -55 -19 -52 -141 -423 -146 -443 -1 -5
-5 -17 -8 -25 -15 -40 -89 -267 -92 -282 -2 -9 -8 -25 -13 -35 -6 -10 -10 -21
-11 -26 0 -4 -11 -40 -23 -80 -12 -39 -23 -74 -23 -77 0 -3 -3 -9 -6 -15 -4
-5 -14 -37 -23 -70 -9 -33 -20 -67 -23 -75 -3 -8 -7 -17 -8 -20 0 -3 -29 -90
-64 -195 -35 -104 -64 -196 -64 -202 0 -7 -3 -13 -7 -13 -4 0 -7 -6 -7 -12 0
-11 -81 -267 -100 -318 -3 -8 -7 -19 -9 -25 -1 -5 -23 -73 -49 -150 -25 -77
-47 -148 -48 -157 -1 -10 -4 -18 -7 -18 -9 0 -5 -167 4 -205 4 -16 13 -33 19
-37 7 -4 9 -8 4 -8 -9 0 17 -53 41 -82 64 -78 155 -138 240 -158 56 -13 169
-8 202 10 11 6 20 8 20 5 0 -16 150 79 255 162 6 5 42 30 80 58 39 27 72 52
75 55 3 4 25 20 50 38 56 39 261 188 275 199 6 5 42 31 80 58 39 27 75 53 80
57 6 5 35 26 65 48 30 22 64 47 75 56 11 8 32 23 48 32 15 9 27 20 27 24 0 4
6 8 14 8 8 0 16 3 18 8 4 8 226 172 234 172 3 0 11 6 18 12 8 7 51 40 97 73
112 81 182 132 194 142 6 5 33 24 60 43 28 18 52 36 55 40 3 3 21 17 40 30 19
13 38 29 42 35 5 6 8 6 8 0 0 -6 3 -6 8 1 4 6 45 38 92 72 47 34 94 68 105 77
10 8 24 15 30 15 11 0 14 -2 102 -70 29 -22 57 -40 62 -40 5 0 11 -3 13 -7 5
-13 86 -73 97 -73 6 0 11 -4 11 -8 0 -5 16 -17 35 -28 19 -10 35 -21 35 -25 0
-3 21 -19 48 -36 26 -17 58 -41 72 -52 36 -30 40 -33 90 -66 25 -16 47 -32 50
-35 3 -3 39 -30 80 -60 41 -29 77 -57 78 -62 2 -4 10 -8 17 -8 7 0 15 -3 17
-7 3 -8 13 -15 88 -68 19 -13 103 -74 185 -134 83 -61 161 -119 174 -128 14
-10 48 -34 75 -55 28 -20 59 -43 69 -52 9 -9 19 -16 21 -16 5 0 166 -118 199
-145 9 -8 20 -15 23 -15 5 0 84 -59 94 -71 3 -3 34 -25 70 -49 36 -24 67 -46
70 -50 15 -19 210 -150 223 -150 9 0 18 -4 21 -9 7 -10 85 -25 141 -25 54 -1
99 11 170 44 148 70 237 216 230 375 -2 38 -8 84 -15 100 -6 17 -11 30 -9 30
1 0 -18 61 -42 135 -24 74 -44 137 -44 140 -1 3 -25 79 -55 170 -29 91 -55
170 -56 175 -1 6 -13 42 -27 80 -13 39 -24 73 -25 78 0 4 -26 85 -57 180 -32
94 -58 177 -60 182 -1 6 -4 17 -8 25 -3 8 -15 47 -28 85 -12 39 -33 100 -45
138 -13 37 -23 68 -23 70 0 3 -10 33 -26 77 -7 19 -14 40 -15 45 -3 13 7 -18
-100 315 -50 157 -96 293 -101 303 -5 10 -7 22 -4 27 4 6 1 10 -4 10 -6 0 -10
3 -9 8 1 4 -6 31 -16 60 -10 29 -16 55 -15 56 32 28 211 156 218 156 5 0 11 3
13 8 3 8 63 54 124 95 22 15 50 36 62 47 12 11 25 20 29 20 4 0 20 10 35 23
14 12 54 42 89 67 35 25 84 61 110 80 26 19 57 42 69 50 104 72 350 252 368
268 12 12 22 19 22 16 0 -3 6 0 13 6 15 13 77 58 396 290 105 76 209 152 231
170 22 17 40 29 40 26 0 -3 9 2 19 12 36 32 50 42 60 42 5 0 11 3 13 8 2 4 35
30 73 59 67 49 135 114 135 129 0 4 6 15 13 23 25 29 49 112 52 174 2 72 -15
152 -48 217 -46 92 -167 185 -267 205 -19 4 -606 9 -1305 10 -698 2 -1273 4
-1276 4 -5 1 -96 267 -104 305 -1 6 -7 24 -14 40 -6 16 -13 36 -14 45 -1 9 -5
21 -8 26 -4 6 -10 24 -14 40 -5 17 -9 32 -10 35 0 3 -25 79 -55 170 -30 91
-55 167 -55 170 -1 3 -4 12 -7 20 -13 35 -71 216 -73 230 -2 8 -4 15 -5 15 -1
0 -3 7 -5 15 -2 8 -14 42 -25 75 -12 33 -23 65 -24 70 -10 37 -40 132 -44 140
-4 6 -7 15 -8 20 -1 6 -23 75 -49 155 -26 80 -76 235 -112 345 -35 110 -68
210 -74 223 -5 13 -7 28 -4 33 4 5 1 9 -4 9 -6 0 -10 3 -9 8 5 18 -78 241
-105 282 -60 91 -171 163 -272 176 -27 3 -53 8 -56 10 -3 2 -8 2 -10 0z m2895
-3320 c-27 -19 -53 -39 -59 -43 -5 -5 -46 -34 -90 -66 -44 -31 -89 -64 -100
-73 -19 -14 -144 -105 -360 -260 -49 -35 -101 -73 -115 -84 -14 -11 -63 -47
-110 -80 -47 -33 -94 -67 -105 -76 -66 -51 -237 -174 -241 -174 -3 0 -11 -6
-18 -12 -8 -7 -24 -20 -36 -28 -13 -8 -35 -24 -49 -36 -14 -11 -57 -43 -96
-70 -38 -27 -74 -52 -80 -57 -17 -14 -484 -353 -605 -440 -120 -85 -193 -138
-223 -163 -9 -8 -22 -14 -27 -14 -6 0 -10 -3 -10 -7 -1 -5 -30 -28 -66 -53
-68 -48 -156 -110 -189 -136 -73 -56 -155 -114 -161 -114 -3 0 -14 -8 -23 -18
-9 -9 -34 -29 -56 -44 -22 -15 -58 -41 -80 -57 -22 -17 -47 -34 -55 -38 -8 -4
-21 -13 -28 -20 -7 -7 -68 -52 -135 -100 -67 -48 -192 -138 -277 -200 -85 -62
-164 -120 -175 -127 -11 -8 -51 -38 -88 -65 -37 -28 -72 -51 -77 -51 -4 0 -10
-4 -12 -8 -1 -5 -73 -59 -158 -120 -174 -125 -363 -263 -397 -288 -37 -27
-190 -138 -213 -154 -12 -8 -29 -21 -38 -28 -144 -108 -161 -118 -142 -82 6
11 8 20 5 20 -4 0 -3 6 2 13 4 6 8 14 9 17 0 3 3 12 6 20 3 8 23 69 43 135 20
66 44 140 52 165 8 25 17 52 19 60 5 23 34 111 47 145 6 17 12 35 12 40 1 6 4
17 7 25 8 20 41 122 44 135 1 6 14 46 29 90 15 44 28 85 29 90 1 6 10 35 20
65 19 60 23 71 25 82 1 4 9 27 17 50 9 24 17 51 19 60 2 9 9 26 15 37 6 12 8
21 6 21 -3 0 -1 12 5 28 9 22 53 161 63 197 2 6 6 17 9 25 8 17 80 244 104
328 9 28 20 52 25 52 5 0 37 11 71 24 34 13 96 36 137 51 41 15 89 33 107 41
17 8 45 17 62 20 17 4 31 11 31 16 0 5 4 6 10 3 5 -3 21 1 34 10 14 9 28 16
31 15 3 -1 18 3 33 8 15 6 83 31 152 57 69 25 132 49 140 52 8 4 17 7 20 7 7
2 100 36 125 46 51 21 134 52 146 54 8 2 28 9 44 15 43 18 188 72 200 75 6 1
19 7 30 13 11 6 25 12 30 13 6 1 20 6 33 11 13 5 29 9 36 9 6 0 17 5 24 12 7
7 12 9 12 5 0 -4 9 -3 21 4 24 12 146 58 170 64 9 2 25 8 35 13 11 6 102 40
204 77 102 36 194 70 205 75 11 5 43 16 70 25 28 10 59 21 70 26 31 13 79 32
90 34 6 2 42 15 80 30 39 14 97 36 130 47 33 12 71 25 85 31 14 6 27 11 30 11
12 3 108 40 137 52 17 8 37 14 45 14 8 0 18 3 22 7 5 6 59 28 91 37 6 2 21 7
35 13 42 17 201 75 214 78 6 1 25 7 41 14 17 7 73 28 125 47 52 19 131 49 175
65 44 17 91 35 105 39 14 5 39 15 55 21 17 7 35 13 40 15 6 1 42 14 80 29 39
15 79 29 90 32 11 3 25 10 31 14 6 5 19 10 30 12 10 2 30 8 44 14 78 32 83 29
24 -11z"/>
</g>
</svg>
